<svg xmlns="http://www.w3.org/2000/svg" height="800" width="1200" viewBox="-7.69482 -10.69205 66.68844 64.1523"><g fill="#ff033e"><path d="M50.2508.143c.539-.32.9902-.1.9941.6303l.0522 9.4949c.0044.7762.0393.7353-.6288 1.1357l-8.2937 4.9612c-.4948.296-.9398.0311-.9419-.5271l-.0316-9.8257c-.0016-.5556.0809-.6631.5322-.9312z" fill-rule="evenodd"/><path d="M29.374 18.998c-.2253.1317-.2364.3403.0286.4892l3.4456 1.9362c.2817.1583.2597.1628.5404.0002l3.4806-2.0172c.2076-.1203.201-.3359-.002-.4492l-3.57-1.9955c-.202-.1129-.2578-.1045-.4465.0058z" fill-rule="evenodd" stroke="#ff033e" stroke-width=".0045"/><path d="M43.4927 19.0276c-.1134.0662-.119.1712.0145.2462l1.7341.9744c.1418.0797.1308.082.272.0002l1.7518-1.0152c.1045-.0606.1011-.169-.0009-.2261l-1.7969-1.0044c-.1016-.0568-.1297-.0525-.2247.003zm-1.5157 2.8816c-.1139-.0655-.2078-.0182-.2066.1348l.015 1.9891c.0012.1627-.0063.1542.1348.2362l1.751 1.0167c.1044.0606.1969.004.1958-.113l-.0202-2.0584c-.0012-.1164-.0188-.1387-.114-.1936z" fill-rule="evenodd" stroke="#ff033e" stroke-width=".0023"/><path d="M38.4573 22.0183c.1496-.0862.273-.024.2715.177l-.0197 2.6147c-.0016.2138.0082.2026-.1772.3105l-2.3015 1.3363c-.1373.0797-.2589.0052-.2574-.1485l.0265-2.7057c.0015-.153.0246-.1823.1499-.2545z" fill-rule="evenodd" stroke="#ff033e" stroke-width=".003"/><path d="M32.555 5.1362c-.3786-.218-.691-.0607-.6872.4483l.0499 6.6176c.004.541-.0207.5128.4485.7858l5.825 3.3823c.3476.2018.6553.013.6517-.376l-.0671-6.848c-.004-.3872-.0625-.4613-.3794-.644z" fill-rule="evenodd" stroke="#ff033e" stroke-width=".0075"/><path d="M3.333 33.309c-1.4307.0135-3.38 1.1017-3.332 3.4549.0128.6312.2578 3.3745 3.4003 3.4344 1.2752.0243 2.0915-.4505 2.7407-.986.1284-.106.0954-.196.0544-.2585l-.4286-.6528c-.0508-.0775-.1457-.0621-.2242-.0137-.602.3708-.9888.752-2.1423.7346-1.578-.0238-2.0635-1.147-2.1763-1.9996h5.0123c.0536 0 .1045-.0625.1197-.1642.247-1.651-.8153-3.5695-3.0238-3.549zm.0022 1.1679c1.2903-.0077 1.838 1.0055 1.7745 1.4812h-3.77c.0272-.2318.421-1.472 1.9955-1.4812zM39.69 40.035h.8704c.0906 0 .1836-.0587.1836-.1904v-3.6037l3.0671-1.9079c.0645-.0401.0895-.1218.0477-.2194l-.3148-.7345c-.0326-.0762-.122-.064-.1813-.0286l-2.6233 1.5644-.0095-1.3355c-.0009-.1135-.102-.2035-.1908-.1717l-.8776.3148c-.0987.0354-.1336.157-.1336.2671v5.8668c0 .0805.0526.1786.162.1786z" fill-rule="evenodd"/><path d="M35.7121 36.9755a2.7092 2.7092 0 01-.0021.1078m-.5259-3.777a3.3595 3.4534 0 00-3.3465 3.4621 3.3595 3.4534 0 003.3636 3.4446 3.3595 3.4534 0 003.3554-3.4535l-.0002-.0175a3.3595 3.4534 0 00-3.3723-3.4357zm.0047 1.1583a2.1803 2.314 0 012.1884 2.3023v.0118a2.1803 2.314 0 01-2.1775 2.3139 2.1803 2.314 0 01-2.183-2.308 2.1803 2.314 0 012.172-2.32z"/><path d="M24.9898 39.78v-5.7808c0-.1287.027-.2548.1717-.3053l.8204-.2862c.1214-.0423.21.0449.21.1717v.6869c.4299-.4641.906-1.019 2.1749-.973 1.1756.0425 2.4802.9725 2.4802 2.671v3.7967c0 .1615-.009.248-.1953.248h-.807c-.134 0-.1996-.0785-.1996-.2099v-3.8157c0-1.0336-.892-1.5163-1.6599-1.5454-1.0202-.0387-1.7934.737-1.7934 1.8506v3.5487c0 .1008-.0822.1908-.1717.1908h-.8013c-.1182 0-.229-.105-.229-.248zm-2.5985-7.204v-1.012c0-.1045.061-.1683.1687-.209l.8364-.3171c.1525-.0578.2496.0593.2496.1754v.9983c0 .1433-.0618.2285-.189.2698l-.8296.2698c-.1559.0507-.236-.0782-.236-.1754zm.0337 1.3827v5.7876c0 .181.0668.29.1822.29h.769c.1423 0 .2563-.0832.2563-.209v-6.1249c0-.2349-.1113-.2913-.2429-.2496l-.8296.2631c-.14.0444-.135.1597-.135.2428zm-1.3828 5.8887c.0003.0856-.0717.189-.2023.189h-.769c-.0892 0-.2226-.0676-.2226-.2092v-.5396c-.4738.668-1.1998.8874-1.9966.9174-1.3375.0502-2.2064-.9282-2.4486-1.8078-.1643-.5966-.1956-1.1426-.1956-1.6864V34.006c0-.1304.0025-.2486.2024-.3238l.7352-.2766c.1841-.0692.2766.067.2766.2159v3.5548c0 1.0274.515 1.8149 1.6593 1.8684 1.4265.0668 1.7673-.945 1.7673-1.9426v-3.076c0-.1462.0493-.2627.1619-.3035l.7825-.2833c.1007-.0364.2358.0518.236.189zm-10.2768-6.5407a2.7694 2.7694 0 00-.1553.0079c-1.9479.1525-3.314 1.3587-3.3255 3.5082-.0073 1.367.8583 3.2623 3.2245 3.3723.8415.039 1.603-.2847 2.299-.854v3.1075c0 .1839.0542.3204.2719.3196l.6819-.0023c.1755-.001.2386-.147.2386-.3196v-8.8286c0-.2137-.1507-.2519-.2768-.2005l-.7725.315c-.0862.035-.1527.1152-.1527.2097v.2862c-.5819-.624-1.2618-.9384-2.033-.9213zm-.084 1.1444c1.4786.0366 2.1871 1.1824 2.1585 2.4014-.028 1.189-.8064 2.2631-2.226 2.199-1.1229-.0507-2.0268-.6864-2.091-2.28-.0601-1.4871 1.1214-2.346 2.1584-2.3204z" fill-rule="evenodd"/></g></svg>