<?xml version="1.0" encoding="UTF-8"?>
<svg width="512px" height="512px" viewBox="0 0 512 512" version="1.1" xmlns="http://www.w3.org/2000/svg" xmlns:xlink="http://www.w3.org/1999/xlink">
    <title>Rising Auto Logo</title>
    <g id="Rising-Auto-Logo" stroke="none" stroke-width="1" fill="none" fill-rule="evenodd">
        <rect fill="#FFFFFF" x="0" y="0" width="512" height="512"></rect>
        <g id="Logo" transform="translate(76.000000, 146.000000)" fill="#646465">
            <path d="M240.691544,70.3695964 C247.559021,69.0611291 250.166512,70.5444276 251.296296,76.562824 C251.721181,79.162727 251.938451,87.3649972 251.9887,95.8268547 L251.994631,97.0087262 L251.998419,98.1907415 C252.017037,106.260991 251.887241,114.115396 251.644219,117.122545 C251.296296,121.483918 249.818589,123.49005 245.559154,124.62424 C241.299719,125.757876 231.650514,126.891512 227.043707,126.891512 C222.435798,126.891512 220.61072,124.973349 220.61072,120.52456 L220.61072,82.4943581 C220.61072,77.2604888 221.306014,75.6034657 224.261979,74.4692763 C227.391079,73.3356401 233.910633,71.6780637 240.691544,70.3695964 Z M180.058293,0.000652358533 C202.681476,0.0224370947 225.30459,0.589393498 236.865992,1.63616736 C244.081392,2.33383218 246.86312,4.16568644 247.906337,7.91625726 C249.210358,12.0159371 249.384044,44.9871007 248.862436,50.0461389 C248.341379,55.8028418 245.124609,58.4197765 235.562522,60.6876021 C231.306462,61.6505455 212.589842,65.8491064 193.602437,70.1192095 L191.228627,70.6531161 C171.452236,75.1016284 152.02356,79.4847173 148.981028,80.2260899 C141.157452,81.8836663 139.331822,84.3257698 139.331822,92.0017426 L139.331822,120.524117 C139.331822,124.972906 137.506193,126.891623 132.899386,126.891623 C128.292029,126.891623 118.642823,125.757987 114.383388,124.623797 C110.21052,123.490161 108.732813,121.484029 108.298323,117.122655 C108.104737,114.727015 108.00692,108.522867 108.000448,101.359432 L108.000731,99.5502369 C108.014783,87.7834388 108.264979,74.1429446 108.732813,70.543985 C109.428659,64.2638951 112.210387,61.210989 120.902943,58.4197765 C122.057407,58.0709109 125.14794,57.3133989 129.546098,56.2826508 L131.255475,55.8835768 C155.421104,50.2617524 211.868992,37.907789 216.003307,37.0494344 C219.654015,36.264354 220.958587,34.7816088 220.610665,31.2053159 C220.436428,28.8500747 219.654015,27.8912697 217.654699,27.8912697 L217.464991,27.8916796 C212.569322,27.9049331 120.795147,28.2328543 115.513172,27.8912697 C111.60166,27.5421606 110.819247,26.0594154 110.905814,23.2682029 C110.992933,20.2152969 111.427974,10.358914 112.210387,7.56770149 C113.165934,3.8165774 115.861095,2.33383218 123.250181,1.63616736 C134.349392,0.547611065 155.642949,0.0217154182 177.344219,0.000659196865 Z" id="Graphic"></path>
            <path d="M37.8147916,160.968981 C36.4738278,163.509565 34.3339097,167.566644 33.4208191,169.316062 C25.678848,184.150153 19.6886212,197.934151 16.3262866,208.061633 C15.0415638,211.929495 16.949901,212.408621 18.5676592,212.408621 L74.9162626,212.408621 L72.2370918,218.51554 L11.2386741,218.51554 C4.98323198,218.51554 1.5155832,217.587717 0.180133152,213.319292 C-0.762395118,210.30825 2.12536236,202.166404 5.77461499,193.460433 L6.15471445,192.55799 C6.34599655,192.10595 6.53903283,191.652822 6.73339863,191.199238 L7.12377709,190.291648 C7.25441026,189.989041 7.38550849,189.686418 7.51694597,189.383966 L8.11027986,188.024727 C8.24245196,187.723213 8.37477456,187.422151 8.50712184,187.121729 C9.36373984,185.177385 10.3528041,182.985594 11.3566842,180.787093 L11.6581751,180.127582 C11.7605376,179.903914 11.8629318,179.680426 11.9652335,179.457372 L12.2717375,178.789765 C14.9235519,173.019516 17.4290379,167.714089 17.6079763,167.335388 L17.6181774,167.313802 L1.27076907,167.313802 L4.02051695,160.968981 L37.8147916,160.968981 Z M48.4941464,187.559305 L67.8289487,203.440724 L54.9337504,203.440724 C51.9987378,203.440724 49.1558062,202.412761 46.893481,200.532772 L31.0583077,187.559305 L48.4941464,187.559305 Z M68.3058952,160.969202 C66.3358031,165.784251 64.4285687,171.49614 62.407198,175.98919 C59.4931379,182.467901 56.5884514,183.907492 48.7703893,183.907492 L31.1151001,183.907492 C32.4058881,181.014479 32.6633841,180.593446 34.1206898,177.550498 C38.964591,177.55754 41.6178334,177.568782 43.0806115,177.573087 L43.3198984,177.573755 C43.3578981,177.573854 43.3949727,177.573947 43.4311455,177.574034 L43.9898972,177.574842 C49.1315453,177.574842 50.5789261,175.132185 52.6532296,170.937897 C54.0432666,168.126214 55.7183687,163.993338 56.8988801,160.969202 Z" id="Combined-Shape"></path>
            <path d="M150.248051,160.564877 C154.936462,160.564877 158.737698,164.379073 158.737698,169.084023 L158.737698,195.844255 C158.737698,209.146914 160.86328,212.19318 168.609662,212.296641 C173.611811,212.363183 176.837484,212.419139 177.120392,212.424089 L177.140663,212.424444 L174.424549,218.68037 L170.801305,218.680282 C165.08692,218.674718 158.495398,218.551411 154.031643,216.345974 C148.428487,213.577445 145.169261,208.670001 145.169261,194.288479 L145.169261,170.962351 C145.169261,168.587746 143.250999,166.662944 140.883911,166.662944 L116.114676,166.662944 L116.114676,166.648005 L98.4240982,166.648005 L98.4240982,160.564877 L150.248051,160.564877 Z M109.31557,170.336279 L109.31557,197.978965 C109.31557,207.361755 104.565955,214.480038 94.4789516,217.530178 C91.3641881,218.471832 83.8741991,218.672666 83.6012644,218.679859 L86.2302594,212.654823 C86.2302594,212.654823 86.8372353,212.576208 87.5179787,212.476101 L88.0340362,212.397885 C88.4902372,212.326364 88.9199784,212.251639 89.165272,212.190635 C93.4114738,211.134456 98.477031,208.545738 98.477031,197.978965 L98.477031,170.336279 L109.31557,170.336279 Z M127.6806,181.624175 L143.65417,198.71392 L134.246471,198.71392 C131.744845,198.71392 129.308283,197.97642 127.235082,196.607647 C126.589964,196.181635 124.268089,193.673693 123.783423,193.070083 L113.68043,181.624175 L127.6806,181.624175 Z" id="Combined-Shape"></path>
            <path d="M195.976519,170.199623 C196.224641,170.388286 196.408803,170.506684 196.72254,170.66547 C197.219336,170.917205 198.032626,171.177792 198.087213,171.19771 C200.202319,171.980024 206.54102,174.345224 206.54102,174.345224 L206.533852,166.476162 L193.147923,160.565099 L193.069626,162.046737 C192.99133,166.145311 193.595646,168.388793 195.976519,170.199623 M193.149081,174.725703 L193.069682,176.200149 C192.992488,180.278805 193.596804,182.933915 195.978228,184.735893 C196.22635,184.924002 196.409961,185.01861 196.722044,185.179056 C196.774425,185.205613 197.563454,185.57298 198.322709,185.83412 L206.542729,188.862129 L206.53501,180.60855 L193.149081,174.725703 Z M184.87508,218.519357 L191.165259,218.582982 C195.686601,218.582982 197.749877,216.003116 198.869185,214.066695 C199.073197,213.712607 200.417469,210.606588 200.417469,210.606588 L206.850456,194.398744 L195.502991,194.30137 L184.87508,218.519357 Z M212.710777,180.57386 L259.795592,180.57386 L259.795592,175.6382 L212.668872,175.6382 L212.710777,180.57386 Z M227.322431,168.714886 L261.121117,168.677817 L261.121117,163.98172 L229.616737,163.98172 C230.671533,162.657761 231.595651,160.806543 232.208238,159.426151 L223.301745,159.426151 C220.436758,165.065009 218.932034,167.088292 212.668872,167.088292 L212.668872,173.257176 C222.117926,173.381661 224.496041,171.457411 227.322431,168.714886 M267.733856,213.938726 C263.81683,213.901657 262.047992,211.596763 261.522524,209.54305 C261.148135,208.079669 261.121117,206.181423 261.121117,203.835587 L261.121117,193.72913 L261.121117,190.988817 C261.108987,189.587955 260.437953,187.920973 259.116288,186.745842 C257.992018,185.746649 256.827496,185.231008 254.746576,185.150231 L252.019987,185.150231 L211.067104,185.150231 L211.067104,189.673158 L224.348822,189.673158 L224.348822,189.68035 L245.16464,189.68035 C245.655922,189.68035 246.276228,189.696948 246.793977,189.935404 C247.087313,190.070401 247.414834,190.300558 247.705413,190.604853 C247.932032,190.842203 248.144866,191.146497 248.251834,191.369462 C248.422763,191.72687 248.52146,192.057168 248.52146,192.394106 L248.52146,205.010718 C248.52146,212.779639 250.811355,215.883999 254.913645,217.647248 C257.821089,218.896517 258.967966,219.022661 263.51026,219.055303 C264.485657,219.062496 268.811258,219.128334 270.882253,219.034279 C271.29138,218.07824 273.139616,213.938726 273.139616,213.938726 C273.139616,213.938726 271.669077,213.976348 267.733856,213.938726" id="Combined-Shape"></path>
            <path d="M331.607075,194.3557 L330.085257,194.3557 L329.99483,186.996747 L330.858297,186.996747 L356.148037,186.996747 L356.152448,181.280986 L329.99483,181.280986 L329.99483,173.62493 L316.814016,173.62493 L316.814016,181.280986 L315.153801,181.280986 L302.012686,181.292604 C300.565305,181.292604 299.579432,180.287878 299.918533,178.603745 C300.062444,177.887823 300.36791,176.841049 300.970572,175.276974 C301.84286,173.015788 302.935701,170.136053 304.106839,167.800729 C311.488757,167.81954 355.474798,167.816221 355.474798,167.816221 L355.489686,163.306573 L305.80124,163.306573 C306.070866,162.534217 307.292731,159.96763 308.106573,158.721681 L298.579223,158.721681 C297.983729,159.642311 296.168576,163.306573 296.168576,163.306573 L287.598978,163.306573 L285.70994,167.816221 C285.70994,167.816221 291.885431,167.791324 293.776124,167.815667 C293.520282,168.352886 291.285526,173.47223 290.232384,175.670344 C289.492428,177.214502 288.730968,179.105555 288.419436,180.101429 C287.945798,181.610177 287.93863,182.770923 288.232518,183.742453 C288.928363,186.045135 291.220463,186.996747 293.872616,186.996747 L309.985686,186.996747 L315.042422,186.996747 L316.814016,186.996747 L316.904443,194.3557 L310.734465,194.3557 L282.500889,194.3557 L279.953499,200.110743 L315.755911,200.110743 L316.904443,200.110743 L316.814016,220 L329.99483,220 L330.085257,200.110743 L357.492861,200.110743 L360,194.3557 L331.607075,194.3557 Z" id="Fill-28"></path>
        </g>
    </g>
</svg>